<?xml version="1.0" encoding="UTF-8"?>
<svg xmlns="http://www.w3.org/2000/svg" version="1.1" viewBox="0 0 47 48">
  <defs>
    <style>
      .cls-1 {
        fill: #eceded;
      }

      .cls-2 {
        fill: #808285;
      }
    </style>
  </defs>
  <!-- Generator: Adobe Illustrator 28.7.1, SVG Export Plug-In . SVG Version: 1.2.0 Build 142)  -->
  <g>
    <g id="Layer_1">
      <g id="ART">
        <g>
          <circle class="cls-2" cx="23" cy="24" r="24"/>
          <path class="cls-1" d="M14.3,24c0,4.9,3.9,8.8,8.8,8.8s8.8-3.9,8.8-8.8-.3-2.6-.8-3.7c-.2,0-.4,0-.6,0-2.1,0-3.7-1.7-3.7-3.7s0-.4,0-.6c-1.1-.5-2.4-.8-3.7-.8-5-.1-8.9,3.8-8.9,8.7ZM25.1,24c0,1.2-.9,2.1-2.1,2.1s-2.1-.9-2.1-2.1.9-2.1,2.1-2.1,2.1.9,2.1,2.1Z"/>
          <path class="cls-1" d="M23,8c-8.8,0-16,7.2-16,16s7.2,16,16,16,16-7.2,16-16-7.2-16-16-16ZM34.1,24c0,6.1-5,11.1-11.1,11.1s-11.1-5-11.1-11.1,5-11.1,11.1-11.1,3.3.4,4.8,1.1c.7-.7,1.6-1.1,2.6-1.1,2.1,0,3.7,1.7,3.7,3.7s-.4,1.9-1.1,2.6c.7,1.5,1.1,3.1,1.1,4.8Z"/>
        </g>
      </g>
    </g>
  </g>
</svg>